<?xml version="1.0" standalone="no"?>
<!DOCTYPE svg PUBLIC "-//W3C//DTD SVG 20010904//EN"
 "http://www.w3.org/TR/2001/REC-SVG-20010904/DTD/svg10.dtd">
<svg version="1.0" xmlns="http://www.w3.org/2000/svg"
 width="269.000000pt" height="269.000000pt" viewBox="0 0 269.000000 269.000000"
 preserveAspectRatio="xMidYMid meet">
<metadata>
Created by potrace 1.14, written by Peter Selinger 2001-2017
</metadata>
<g transform="translate(0.000000,269.000000) scale(0.100000,-0.100000)"
fill="#000000" stroke="none">
<path d="M1330 2668 c-113 -13 -137 -17 -219 -38 -344 -88 -614 -275 -786
-544 -44 -69 -105 -197 -105 -220 0 -9 -4 -16 -9 -16 -5 0 -11 -12 -14 -27 -3
-16 -15 -75 -26 -132 -21 -102 -29 -294 -16 -366 37 -194 63 -277 129 -405 91
-177 208 -326 361 -459 56 -49 189 -141 204 -141 5 0 11 -4 13 -8 3 -9 195
-113 330 -179 85 -42 283 -113 314 -113 29 0 2 159 -46 266 -80 180 -221 330
-456 489 -182 122 -314 289 -314 395 0 57 27 120 62 144 12 9 71 32 130 52
126 42 135 51 119 125 -17 79 -14 104 19 139 28 30 33 32 92 28 l63 -3 6 59
c10 88 26 100 147 106 l97 5 -4 35 c-2 19 -4 81 -5 136 -2 154 10 161 229 129
113 -17 338 -19 435 -5 98 14 173 58 275 160 l89 89 -107 51 c-59 27 -107 54
-107 59 0 19 -252 118 -385 150 -157 38 -379 55 -515 39z"/>
</g>
</svg>
